<?xml version="1.0" encoding="utf-8"?>
<!-- Generator: Adobe Illustrator 19.2.1, SVG Export Plug-In . SVG Version: 6.00 Build 0)  -->
<svg version="1.1" id="layer" xmlns="http://www.w3.org/2000/svg" xmlns:xlink="http://www.w3.org/1999/xlink" x="0px" y="0px"
	 viewBox="0 0 652 652" style="enable-background:new 0 0 652 652;" xml:space="preserve">
<path d="M26.8,249.7v152.3h152.3V249.7H26.8z M169.1,326.5c-0.7,1.3-1.4,2.5-2,3.7c-0.8,1.9-2.8,3-4.9,2.7c-0.8,0-1.5,0.2-2.1,0.7
	c-1.9,1.2-3.8,2.5-5.7,3.6c-2.7,1.5-5.9,1.6-8.7,0.5c-4.7-1.8-9.6-2.7-14.6-2.7c-5-0.2-9.8,2-13,5.9c-1.3,1.8-2.3,3.8-2.9,5.9
	c-1.7,4.2-3.2,29.3-3.2,35.7c0,0-24.2-4.7-46.8-27.9l5.9-15.5H52.6L66,324.9h-23l13.4-14.2H34.5l24.4-25.8
	c7.5-7.4,16.9-12.5,27.1-14.9c9.7-1.7,12.2-0.7,18.3,1.1l3.3,1l1.2,0.3l4.3,1.3c2.8,0.8,5.7,0.8,8.5,0.1c3.8-1,7.9-0.5,11.3,1.4
	c3.1,1.8,5.2,5,5.6,8.5c0.4,3.2,2.2,5.9,5,7.5c4.1,2.2,8.4,4.1,12.8,5.6c3.1,1.2,6.2,2.5,9.3,3.7c1.5,0.6,2.9,1.6,3.9,2.8
	c0.9,1.1,1.4,2.4,1.5,3.7c0.2,2.7,0.5,5.5,0.6,8.2l0,0C171.7,319.3,170.9,323.1,169.1,326.5L169.1,326.5z"/>
<path d="M183.8,249.7v97.1h443.1v-97.1H183.8z M241.7,280.5h-5.5v31.8h5v5.1h-15.4v-5.1h4.5v-23.6h-0.3l-13.2,26.2H214l-13.7-26.6
	H200v24h4.7v5.1h-15.3v-5.1h5v-31.8H189v-5.1h10.5l16,30.9h0.3l15.3-30.9h10.6L241.7,280.5z M281.6,311.6c-3.8,3.9-9,5.9-15.6,5.9
	h-19.3v-5.1h5.1v-32h-5.1v-5h19c6.9,0,12.3,2,16,5.9c3.7,4.1,5.7,9.5,5.5,15.1C287.4,302,285.4,307.5,281.6,311.6L281.6,311.6z
	 M335,280.5h-5v37h-3.6l-23.9-31.3h-0.3v26.1h6.4v5.1h-16.8v-5.1h4.8v-31.8h-5.5v-5.1h9.7l23.2,30.3h0.3v-25.2H318v-5.1h16.9
	L335,280.5z M395.1,317.5h-4.5l-10.7-31.8h-0.3l-10.4,31.8h-4.6l-12-37h-3.6v-5.1h15.2v5.1h-5.3l8.1,27.3h0.3l9.1-27.3h-3.9v-5.1
	h15.1v5.1h-3.8l9.1,27.6h0.3l7.4-27.6h-5.7v-5.1h15.1v5.1h-3.5L395.1,317.5z M431.7,315.5c-2.5,1.9-5.6,2.9-8.8,2.7
	c-3.8,0.2-7.4-1.2-10.2-3.8c-2.6-2.5-3.9-6.1-3.9-10.9c-0.2-4,1.1-8,3.6-11.1c2.5-3,6.2-4.6,10-4.4c3.5-0.2,6.9,1.2,9.3,3.7
	c2.2,2.5,3.4,5.6,3.4,8.9c0,1.2-0.1,2.5-0.4,3.7h-19.9c0.3,6.1,3.1,9.2,8.5,9.2c1.8,0.1,3.7-0.4,5.1-1.6c1.1-1,1.9-2.4,2.3-3.9
	l4.7,1C435.1,311.6,433.7,313.8,431.7,315.5L431.7,315.5z M467,313.2c-2.1,3.3-5.4,5-9.9,5s-8-1.8-9.9-5.3c0,0.3-0.1,1.1-0.3,2.3
	c-0.2,1.2-0.3,2-0.3,2.3h-5.7c0.2-1.4,0.4-2.7,0.6-4.2c0.2-1.4,0.3-2.9,0.3-4.3v-31.5h-4.7v-4.5h10.4v21.4c0.9-1.7,2.1-3.3,3.7-4.5
	c1.9-1.4,4.2-2.1,6.5-1.9c3.4-0.1,6.6,1.3,8.9,3.8c2.3,2.5,3.5,6,3.5,10.6C470.2,306.2,469.1,309.9,467,313.2L467,313.2z
	 M523.8,311.7c-3.8,3.9-9,5.9-15.6,5.9h-19.3v-5.1h5.1v-32h-5.1v-5h19c6.9,0,12.3,2,16,5.9c3.8,4.1,5.8,9.5,5.6,15.1
	C529.7,302,527.7,307.5,523.8,311.7L523.8,311.7z M559,314c-2.9,2.9-6.8,4.4-10.8,4.2c-3.9,0.2-7.7-1.3-10.5-4.1
	c-2.6-2.9-4-6.8-3.8-10.7c-0.1-3.9,1.2-7.8,3.7-10.9c2.5-3,6.1-4.5,11-4.5s8.5,1.5,11,4.5c2.4,3,3.7,6.8,3.6,10.6
	C563.3,307.1,561.8,311,559,314L559,314z M590,314.8c-1.9,2.3-5,3.4-9.2,3.4c-3.7,0.2-7.2-1.2-9.8-3.8c-2.5-2.5-3.7-6.1-3.7-10.9
	c-0.1-4,1.2-7.9,3.7-11c2.5-3,6.3-4.7,10.3-4.5c1.8,0,3.5,0.2,5.2,0.7c1.7,0.4,3.4,1.2,4.8,2.3l1.2,7.5l-4.6,0.5l-1-4.9
	c-1.7-1-3.7-1.4-5.6-1.4c-2.4-0.2-4.7,1-6,2.9c-1.4,2.3-2.1,4.9-1.9,7.6c-0.1,2.6,0.6,5.2,2.1,7.4c1.5,1.9,3.7,2.9,6.1,2.7
	c4,0,6.4-2.3,7.2-7l4.8,1C593,310.1,591.8,312.7,590,314.8L590,314.8z M618.1,315.8c-2.7,1.7-5.9,2.5-9.1,2.4
	c-4,0.1-7.9-0.9-11.3-2.9l1-7.1l4.5,0.5l-0.1,3.8c0.9,0.4,1.8,0.8,2.8,0.9c1,0.2,2,0.3,3,0.3c1.7,0,3.4-0.3,5-1
	c1.4-0.5,2.2-1.8,2.2-3.2c0.1-1.3-0.6-2.5-1.8-3c-1.4-0.7-2.9-1.1-4.5-1.4c-1.8-0.3-3.6-0.7-5.3-1.1c-1.7-0.4-3.2-1.2-4.5-2.3
	c-1.3-1.3-2-3.2-1.8-5c0-3.2,1.2-5.5,3.6-6.7c2.4-1.2,5-1.9,7.7-1.9c1.9,0,3.8,0.2,5.6,0.8c1.7,0.5,3.2,1.1,4.8,1.9l0.6,7l-4.5,0.5
	l-0.7-4.5c-1.7-0.8-3.6-1.2-5.6-1.2c-1.4-0.1-2.7,0.3-3.9,0.9c-1.1,0.6-1.7,1.8-1.6,3.1c-0.1,1.2,0.7,2.4,1.8,2.8
	c1.4,0.6,2.9,1.1,4.4,1.3c1.8,0.3,3.5,0.7,5.2,1.1c1.6,0.4,3.2,1.2,4.4,2.4c1.3,1.4,1.9,3.2,1.8,5.1
	C621.8,311.7,620.4,314.3,618.1,315.8L618.1,315.8z"/>
<path d="M456.2,292.6c-2.4-0.1-4.7,1-6.2,2.9c-1.4,1.7-2.2,3.8-2.3,6.1v3.2c-0.1,2.3,0.8,4.5,2.3,6.1c1.5,1.6,3.7,2.6,5.9,2.5
	c2.5,0.2,4.9-1,6.3-3.1c1.5-2.3,2.2-4.9,2.1-7.6c0.2-2.7-0.6-5.4-2.3-7.6C460.5,293.5,458.4,292.5,456.2,292.6z M548.4,292.5
	c-2.5-0.1-4.9,1-6.4,2.9c-1.6,2.2-2.4,4.8-2.2,7.5c-0.1,2.7,0.7,5.3,2.2,7.5c1.5,2.1,3.9,3.2,6.4,3.1c2.5,0.1,5-1,6.5-3
	c1.6-2.2,2.4-4.9,2.3-7.7c0.1-2.7-0.7-5.4-2.4-7.6C553.2,293.4,550.9,292.4,548.4,292.5z M427.8,295c-1.2-1.8-3.3-2.8-5.5-2.6
	c-2.1-0.1-4.1,0.7-5.3,2.4c-1.2,1.7-2,3.7-2.2,5.7h14.4C429.4,298.5,428.9,296.6,427.8,295z M507.8,280.4h-7.9v32h7.8
	c5,0,8.8-1.4,11.5-4.1c2.6-2.7,4-6.7,4-11.9c0-5-1.3-8.9-4-11.7C516.6,281.8,512.8,280.4,507.8,280.4z M265.6,280.4h-7.8v32h7.8
	c5,0,8.8-1.4,11.5-4.1c2.6-2.7,4-6.7,4-11.8c0-5-1.3-8.9-4-11.7S270.6,280.5,265.6,280.4z"/>
<path d="M183.9,401.9v-51.5h157.6v51.5H183.9z M227.2,387.8h-2.7v-9.4c0.2-2.1-0.6-4.1-2.2-5.5c-1.4-1.1-3.1-1.7-4.9-1.7
	c-3-0.1-5.7,1.7-6.7,4.5c-0.4-1.4-1.3-2.6-2.6-3.4c-1.2-0.7-2.7-1.1-4.1-1.1c-2.6-0.1-5,1.2-6.3,3.5v-3h-8.6v4.5h2.7v11.7h-2.7v4.4
	h12.5v-4.4h-3.9v-7.2c-0.1-1.2,0.3-2.5,0.9-3.5c0.7-1,1.9-1.5,3-1.4c2.4,0,3.5,1.7,3.5,5v11.5h8.6v-4.4h-2.7v-7.2
	c-0.1-1.2,0.3-2.5,0.9-3.5c0.7-1,1.8-1.5,3-1.4c2.4,0,3.6,1.7,3.6,5v11.5h8.6V387.8z M240.8,371.2c-3.7,0-6.4,1.1-8.2,3.2
	c-1.8,2.2-2.8,4.9-2.7,7.8c-0.2,2.9,0.9,5.7,3,7.7c2.1,1.9,4.9,2.9,7.8,2.7c3,0.1,5.9-0.9,8.1-2.9c2.2-2,3.3-4.8,3.2-7.8
	c0-2.8-0.9-5.5-2.7-7.6C247.3,372.3,244.5,371.2,240.8,371.2L240.8,371.2z M240.6,388.2c-1.4,0.1-2.8-0.6-3.6-1.8
	c-0.9-1.3-1.3-2.9-1.2-4.5c-0.1-1.6,0.4-3.2,1.4-4.5c0.9-1.1,2.2-1.7,3.6-1.6c1.3,0,2.6,0.5,3.6,1.5c1.1,1.3,1.6,2.9,1.5,4.5
	c0.1,1.7-0.4,3.3-1.4,4.7C243.5,387.6,242.1,388.2,240.6,388.2z M274.9,385l-4.7-0.4l-1,3.2h-6.7l11.4-13.1l-0.4-3.1h-18.1l-0.7,7.2
	l4.3,0.5l0.9-3.2h6.4l-11.3,13.1l0.6,3.1h18L274.9,385z M285.4,371.6h-6.1v7.4h6.1V371.6z M285.4,384.8h-6.1v7.4h6.1V384.8z
	 M304,360.8h-5.8l-8.9,31.4h5.8L304,360.8z M315.9,360.8h-5.8l-8.8,31.4h5.7L315.9,360.8z M336.4,391.7l-0.1-3.1
	c-0.2,0.1-0.5,0.2-0.8,0.1c-0.9,0-1.4-0.5-1.4-1.6v-8.9c0.1-2.1-0.8-4.1-2.5-5.3c-1.7-1.2-3.7-1.8-5.7-1.8c-1.5,0-2.9,0.1-4.3,0.4
	c-1.5,0.4-3,0.9-4.5,1.5l-0.8,4.7l4.7,0.5l0.7-2.3c0.5-0.3,1-0.4,1.5-0.5c0.6-0.1,1.1-0.1,1.7-0.1c1.6,0,2.6,0.5,2.9,1.5
	c0.3,1,0.4,2.1,0.4,3.1v0.7c-0.5-0.1-1.1-0.1-1.6-0.2c-0.6,0-1.1,0-1.7,0c-2.3,0-4.5,0.4-6.6,1.2c-2,0.8-3.2,2.8-3,5
	c-0.2,1.8,0.6,3.5,2,4.6c1.3,0.9,2.7,1.3,4.3,1.4c1.5,0.1,2.9-0.4,4.1-1.2c1-0.7,1.8-1.7,2.5-2.7c0,2.3,1.8,4.1,4.1,4.1
	c0.2,0,0.3,0,0.5,0C334.1,392.8,335.4,392.4,336.4,391.7L336.4,391.7z M323.8,388.5c-0.7,0.1-1.4-0.2-1.9-0.7
	c-0.4-0.5-0.6-1.1-0.6-1.7c-0.1-0.9,0.3-1.9,1.2-2.3c0.9-0.4,1.8-0.6,2.7-0.6c0.5,0,1,0,1.5,0.1l1.5,0.2c0.1,1.4-0.5,2.8-1.5,3.8
	C325.9,388.1,324.8,388.5,323.8,388.5L323.8,388.5z"/>
</svg>
